  <svg  xmlns="http://www.w3.org/2000/svg">
  <symbol id="burger" viewBox="0 0 121 121">
    	<path class="shp0" style="fill:none;stroke-width: 4" d="M61 83L91 99L107 83M119 93C119 98.57 114.57 103 109 103L13 103C7.43 103 3 98.57 3 93C3 87.43 7.43 83 13 83L109 83C114.57 83 119 87.43 119 93ZM13 103L13 109C13 114.57 17.43 119 23 119L99 119C104.57 119 109 114.57 109 109L109 103L13 103ZM109 47C109 20.54 87.46 3 61 3C34.54 3 13 20.54 13 47L109 47ZM13 47C13 47 3 53 3 57C3 62.57 7.43 63 13 63C15.69 63 19.2 62.71 21 61C23.58 65.66 27.29 69 33 69C39.21 69 44.66 64.35 47 59C49.33 64.35 54.79 67 61 67C67.21 67 72.66 64.35 75 59C77.33 64.35 82.79 69 89 69C94.7 69 100.42 65.66 103 61C104.81 62.71 108.31 63 111 63C116.57 63 119 62.57 119 57C119 53 109 47 109 47M13 63C7.43 63 3 67.43 3 73C3 78.57 7.43 83 13 83L109 83C114.57 83 119 78.57 119 73C119 67.43 114.57 63 109 63" />
    	<path class="shp1" style="stroke:none" d="M35 21C33.89 21 33 21.89 33 23C33 24.1 33.89 25 35 25C36.11 25 37 24.1 37 23C37 21.89 36.11 21 35 21ZM63 21C61.89 21 61 21.89 61 23C61 24.1 61.89 25 63 25C64.11 25 65 24.1 65 23C65 21.89 64.11 21 63 21ZM87 21C85.89 21 85 21.89 85 23C85 24.1 85.89 25 87 25C88.11 25 89 24.1 89 23C89 21.89 88.11 21 87 21ZM47 13C45.89 13 45 13.89 45 15C45 16.1 45.89 17 47 17C48.1 17 49 16.1 49 15C49 13.89 48.1 13 47 13ZM75 13C73.89 13 73 13.89 73 15C73 16.1 73.89 17 75 17C76.11 17 77 16.1 77 15C77 13.89 76.11 13 75 13Z" />
  </symbol>
  <symbol id="money" viewBox="0 0 121 64">
      <path id="Path 1" style="fill: none;stroke-width: 4;stroke-linecap:round;stroke-linejoin:round" class="shp0" d="M119 16L89 36L63 36M119 28L89 48L63 48M119 38L89 58L63 58M63 62L27 62L27 22L57 2L93 2L63 22L63 62ZM27 34L3 34M27 42L3 42M27 50L3 50M27 58L3 58" />
      <path id="Path 2" style="fill: none;stroke-width: 4;stroke-linejoin:round" class="shp1" d="M87 6L119 6L89 26L63 26M27 26L3 26L33 6L51 6" />
      <path id="Path 3" style="fill: none;stroke-linecap:round;stroke-width: 4;stroke-linejoin:round" class="shp0" d="M45 50L45 54M45 22L45 26M39 44C39 47.31 41.68 50 45 50C48.31 50 51 47.31 51 44C51 40.69 48.31 38 45 38L45 38C41.69 38 39 35.32 39 32C39 28.69 41.69 26 45 26C48.31 26 51 28.69 51 32" />
  </symbol>
  <symbol id="cook" viewBox="0 0 123 126" >


    <path id="Path 1" style="fill: none;stroke-linecap:round;stroke-width: 4;" class="shp0" d="M46.05 91.74L16.09 99.3C8.22 102.26 3 113.59 3 122L119 122C119 113.59 113.78 102.26 105.91 99.3L75.95 91.74" />
    <path id="Path 2" style="fill: none;stroke-linecap:round;stroke-linejoin:round;stroke-width: 4;" class="shp1" d="M63 122L63 99.06" />
    <path id="Path 3" style="fill: none;stroke-linecap:round;stroke-width: 4;" class="shp0" d="M33 56C27.96 56 30.73 74.09 37.71 74.09C37.71 89.22 54.02 99.3 61 99.3M89 56C91.52 56 91.27 74.09 84.28 74.09C84.28 89.22 67.98 99.3 61 99.3M30.74 36.87L33 56C33 56 40.83 50 61 50C81.17 50 89 56 89 56L91.26 36.87M43.35 23.65C43.35 21.9 43.61 20.2 44.09 18.61C42.15 17.05 39.72 16.09 37.04 16.09C30.78 16.09 25.7 21.17 25.7 27.43C25.7 31.37 27.7 34.83 30.74 36.87M91.26 36.87C94.3 34.83 96.3 31.37 96.3 27.44C96.3 21.17 91.22 16.09 84.96 16.09C82.28 16.09 79.85 17.05 77.91 18.61C78.38 20.2 78.65 21.9 78.65 23.65M77.91 18.61C75.74 11.32 68.99 6 61 6C53.01 6 46.26 11.32 44.09 18.61M44.09 18.61C43.61 20.2 43.35 21.9 43.35 23.65M78.65 23.65C78.65 21.9 78.38 20.2 77.91 18.61M45.87 64C45.87 61.21 48.13 61.48 50.91 61.48C53.7 61.48 55.96 61.21 55.96 64M66.04 64C66.04 61.21 68.3 61.48 71.09 61.48C73.87 61.48 76.13 61.21 76.13 64" />
    <path id="Path 4" fill-rule="evenodd" class="shp2" d="M61 84.17L45.87 84.17C45.87 78.6 49.26 74.09 53.43 74.09C57.61 74.09 61 78.6 61 84.17ZM50.82 80.17L56.05 80.17C55.35 78.88 54.36 78.09 53.43 78.09C52.51 78.09 51.52 78.88 50.82 80.17Z" />
    <path id="Path 5" fill-rule="evenodd" class="shp2" d="M76.13 84.17L61 84.17C61 78.6 64.39 74.09 68.57 74.09C72.74 74.09 76.13 78.6 76.13 84.17ZM65.95 80.17L71.18 80.17C70.48 78.88 69.49 78.09 68.57 78.09C67.64 78.09 66.65 78.88 65.95 80.17Z" />
  </symbol>
  <symbol id="arrow" viewBox="0 0 384.965 384.965">
      <path d="M103.383,107.173C98.98,105.405,104.995,107.847,103.383,107.173L103.383,107.173z"/>
      <path d="M184.142,3.448L99.593,87.516c-6.232,5.943-4.138,16.469,3.79,19.658c1.612,0.674,3.32,0.95,5.041,0.902h168.184
        c10.671,0.289,16.602-12.872,8.927-20.476l-84.2-84.164C196.69-1.147,188.786-1.147,184.142,3.448z M247.614,84.208H137.922
        l54.81-55.279L247.614,84.208z"/>
      <path d="M156.677,156.389c0,19.934,16.157,36.091,36.091,36.091s36.091-16.157,36.091-36.091s-16.157-36.091-36.091-36.091
        S156.677,136.455,156.677,156.389z M204.798,156.389c0,6.641-5.39,12.03-12.03,12.03c-6.641,0-12.03-5.39-12.03-12.03
        c0-6.641,5.39-12.03,12.03-12.03C199.409,144.359,204.798,149.749,204.798,156.389z"/>
      <path d="M156.677,252.632c0,19.934,16.157,36.091,36.091,36.091s36.091-16.157,36.091-36.091s-16.157-36.091-36.091-36.091
        S156.677,232.698,156.677,252.632z M204.798,252.632c0,6.641-5.39,12.03-12.03,12.03c-6.641,0-12.03-5.39-12.03-12.03
        s5.39-12.03,12.03-12.03C199.409,240.602,204.798,245.991,204.798,252.632z"/>
      <path d="M156.677,348.874c0,19.934,16.157,36.091,36.091,36.091s36.091-16.157,36.091-36.091s-16.157-36.091-36.091-36.091
        S156.677,328.94,156.677,348.874z M204.798,348.874c0,6.641-5.39,12.03-12.03,12.03c-6.641,0-12.03-5.39-12.03-12.03
        c0-6.641,5.39-12.03,12.03-12.03C199.409,336.844,204.798,342.234,204.798,348.874z"/>
  </symbol>
</svg>
